<svg data-v-0dd9719b="" version="1.0" xmlns="http://www.w3.org/2000/svg" xmlns:xlink="http://www.w3.org/1999/xlink" width="100%" height="100%" viewBox="0 0 340.000000 250.000000" preserveAspectRatio="xMidYMid meet" color-interpolation-filters="sRGB" style="margin: auto;"> <rect data-v-0dd9719b="" x="0" y="0" width="100%" height="100%" fill="#fff" fill-opacity="1" class="background"></rect> <rect data-v-0dd9719b="" x="0" y="0" width="100%" height="100%" fill="url(#watermark)" fill-opacity="1" class="watermarklayer"></rect> <g data-v-0dd9719b="" fill="#333" class="icon-text-wrapper icon-svg-group iconsvg" transform="translate(69.125,93.31432151794434)"><g class="iconsvg-imagesvg" transform="translate(0,0)"><g><rect fill="#333" fill-opacity="0" stroke-width="2" x="0" y="0" width="60" height="63.37135614702155" class="image-rect"></rect> <svg x="0" y="0" width="60" height="63.37135614702155" filtersec="colorsb7239792217" class="image-svg-svg primary" style="overflow: visible;"><svg xmlns="http://www.w3.org/2000/svg" viewBox="-0.0000015679298712711898 -0.00001367961522191763 94.6801528930664 100.00001525878906"><path d="M38.43 95.46a47 47 0 0 0 8.91.85c26.13 0 47.34-21.53 47.34-48.15a48.38 48.38 0 0 0-10.63-30.38l-8.72 19.28 8.06.59-13.21 29.2L66.53 62A167.49 167.49 0 0 0 51 74.71 64.8 64.8 0 0 0 40.85 86.3c-1.37 2.15-3.33 5.77-2.64 8.45a2.68 2.68 0 0 0 .22.71z" fill="#333"></path><path d="M47.34 0C21.21 0 0 21.57 0 48.16a48.55 48.55 0 0 0 4 19.31c.13-.65.29-1.34.45-2 3.79-15.56 13.84-29.1 25.22-40.06A166.12 166.12 0 0 1 56.18 4.89L53.31.39A45.35 45.35 0 0 0 47.34 0z" fill="#8cc63e"></path><path d="M73.54 31.26L85.87 4.05l-26.72-2 2.68 4.11C35.86 21.73 4.14 49.36 7.05 82.71 8.91 90 14.58 93.64 24 93.93 4.47 75.86 55.4 38 70.57 27.34z" fill="#333"></path><path d="M69.3 59l8.06-17.78-17.46-1.29 1.73 2.68c-17 10.18-37.71 28.25-35.79 50.05C27 97.42 30.77 99.84 36.9 100 24.14 88.19 57.46 63.46 67.34 56.48z" fill="#8cc63e"></path></svg></svg> <!----></g></g> <g transform="translate(67,2.110677719116211)"><g data-gra="path-name" fill-rule="" class="tp-name iconsvg-namesvg"><g transform="scale(1)"><g><path d="M49.66-0.78L49.66-0.78 50.83-0.46Q50.31 3.12 49.2 5.69 48.1 8.26 46.34 9.69L46.34 9.69Q44.98 10.79 42.8 11.51 40.63 12.22 37.96 12.22L37.96 12.22Q34.38 12.22 30.97 11.12 27.56 10.01 24.05 8.42 20.54 6.83 16.64 5.33L16.64 5.33Q16.19 5.2 15.76 5.04 15.34 4.88 15.08 4.88L15.08 4.88Q13.85 5.46 12.38 5.85 10.92 6.24 9.62 6.24L9.62 6.24Q8.32 6.24 7.44 5.85 6.57 5.46 6.57 4.55L6.57 4.55Q6.57 2.79 10.14 2.79L10.14 2.79Q12.42 2.79 15.08 3.71L15.08 3.71Q17.48 3.06 19.21 2.24 20.93 1.43 22.78 0.72 24.64 0 27.3-0.2L27.3-0.2 27.37 0.84Q25.29 1.04 23.82 1.59 22.36 2.15 20.87 2.79 19.37 3.45 17.36 4.03L17.36 4.03Q21.97 4.36 25.94 4.71 29.9 5.07 33.28 5.17 36.66 5.27 39.39 4.88L39.39 4.88Q43.42 4.42 45.76 3.12 48.1 1.82 49.66-0.78ZM25.8-46.93L25.8-46.93Q32.7-46.93 37.86-44.13 43.03-41.34 45.89-36.11 48.75-30.88 48.75-23.4L48.75-23.4Q48.75-16.12 45.83-10.66 42.9-5.2 37.67-2.15 32.44 0.91 25.74 0.91L25.74 0.91Q18.85 0.91 13.68-1.89 8.52-4.68 5.66-9.95 2.79-15.21 2.79-22.62L2.79-22.62Q2.79-29.9 5.75-35.36 8.71-40.82 13.88-43.88 19.05-46.93 25.8-46.93ZM25.55-45.76L25.55-45.76Q21.91-45.76 19.21-42.84 16.51-39.91 15.05-34.77 13.59-29.64 13.59-22.88L13.59-22.88Q13.59-15.99 15.24-10.89 16.9-5.79 19.73-3.02 22.55-0.26 26-0.26L26-0.26Q29.64-0.26 32.34-3.19 35.04-6.11 36.5-11.28 37.96-16.45 37.96-23.14L37.96-23.14Q37.96-30.1 36.3-35.16 34.65-40.23 31.82-43 28.99-45.76 25.55-45.76ZM53.23-44.72L53.23-46.02Q54.86-45.95 57.62-45.89 60.38-45.83 63.11-45.83L63.11-45.83Q66.23-45.83 69.16-45.89 72.09-45.95 73.32-45.95L73.32-45.95Q82.36-45.95 86.84-43 91.33-40.04 91.33-34.65L91.33-34.65Q91.33-32.44 90.41-30.19 89.5-27.95 87.33-26.03 85.15-24.12 81.38-22.98 77.61-21.84 71.89-21.84L71.89-21.84 65.65-21.84 65.65-23.14 71.24-23.14Q75.08-23.14 77.06-24.6 79.04-26.07 79.79-28.5 80.53-30.94 80.53-33.93L80.53-33.93Q80.53-39.07 78.72-41.89 76.89-44.72 72.47-44.72L72.47-44.72Q69.94-44.72 69.19-43.62 68.44-42.51 68.44-39.13L68.44-39.13 68.44-6.89Q68.44-4.55 68.8-3.38 69.16-2.21 70.2-1.82 71.24-1.43 73.32-1.3L73.32-1.3 73.32 0Q71.56-0.13 68.9-0.16 66.23-0.2 63.5-0.2L63.5-0.2Q60.38-0.2 57.62-0.16 54.86-0.13 53.23 0L53.23 0 53.23-1.3Q55.31-1.43 56.35-1.82 57.39-2.21 57.75-3.38 58.11-4.55 58.11-6.89L58.11-6.89 58.11-39.13Q58.11-41.54 57.75-42.67 57.39-43.81 56.32-44.23 55.25-44.66 53.23-44.72L53.23-44.72ZM65.65-21.84L65.52-22.95Q68.31-22.88 70.36-22.69 72.41-22.49 73.97-22.33 75.53-22.16 76.77-22.1L76.77-22.1Q82.68-21.58 85.51-19.57 88.34-17.55 89.18-13.52L89.18-13.52 90.67-6.83Q91.26-4.23 91.91-3.19 92.56-2.15 93.8-2.15L93.8-2.15Q94.64-2.21 95.19-2.57 95.75-2.93 96.4-3.64L96.4-3.64 97.31-2.86Q95.55-0.84 93.53 0.03 91.52 0.91 88.66 0.91L88.66 0.91Q85.15 0.91 82.88-0.58 80.6-2.08 79.88-6.11L79.88-6.11 78.72-12.61Q78.26-15.34 77.61-17.39 76.96-19.44 75.82-20.64 74.69-21.84 72.67-21.84L72.67-21.84 65.65-21.84ZM137.54-46.02L137.54-46.02Q137.28-42.7 137.18-39.65 137.09-36.59 137.09-34.97L137.09-34.97Q137.09-33.54 137.15-32.24 137.22-30.94 137.28-30.03L137.28-30.03 135.78-30.03Q134.75-35.49 133.15-38.68 131.56-41.86 129.35-43.19 127.14-44.52 124.15-44.52L124.15-44.52 122.66-44.52 122.66-7.41Q122.66-4.81 123.21-3.51 123.76-2.21 125.25-1.79 126.75-1.36 129.61-1.3L129.61-1.3 129.61 0Q127.59-0.07 124.25-0.13 120.9-0.2 117.26-0.2L117.26-0.2Q113.69-0.2 110.5-0.13 107.31-0.07 105.37 0L105.37 0 105.37-1.3Q108.29-1.36 109.78-1.79 111.28-2.21 111.8-3.51 112.32-4.81 112.32-7.41L112.32-7.41 112.32-44.52 110.89-44.52Q107.9-44.52 105.69-43.19 103.48-41.86 101.92-38.71 100.36-35.55 99.19-30.03L99.19-30.03 97.7-30.03Q97.83-30.94 97.86-32.24 97.89-33.54 97.89-34.97L97.89-34.97Q97.89-36.59 97.79-39.65 97.7-42.7 97.44-46.02L97.44-46.02Q100.42-45.95 103.97-45.89 107.51-45.83 111.09-45.83 114.66-45.83 117.52-45.83L117.52-45.83Q120.45-45.83 123.99-45.83 127.53-45.83 131.11-45.89 134.68-45.95 137.54-46.02Z" transform="translate(-2.7899999618530273, 46.93000030517578)"></path></g> <!----> <!----> <!----> <!----> <!----> <!----> <!----></g></g> <!----></g></g></svg>